# Blender v3.2.1 OBJ File: ''
# www.blender.org
mtllib resources/models/editor/cube.mtl
o Cube.003
v 0.200000 0.200000 -0.200000
v -0.200000 0.200000 -0.200000
v -0.200000 0.200000 0.200000
v 0.200000 0.200000 0.200000
v 0.200000 -0.200000 0.200000
v -0.200000 -0.200000 0.200000
v -0.200000 -0.200000 -0.200000
v 0.200000 -0.200000 -0.200000
vt 0.215599 0.000076
vt 0.784402 0.000075
vt 0.784402 0.999924
vt 0.215599 0.999925
vt 0.784402 0.000076
vt 0.784402 0.999925
vt 0.215598 0.999924
vt 0.215599 0.000075
vt 0.784401 0.000075
vt 0.215599 0.999924
vt 0.215598 0.000076
vt 0.784401 0.999924
vt 0.215599 0.999925
vt 0.215598 0.000076
vt 0.784401 0.000075
vt 0.784402 0.999924
vt 0.784402 0.000076
vt 0.784402 0.999925
vt 0.215598 0.999924
vt 0.215599 0.000075
vn 0.0000 1.0000 0.0000
vn 0.0000 -0.0000 1.0000
vn -1.0000 0.0000 0.0000
vn 0.0000 -1.0000 -0.0000
vn 1.0000 -0.0000 0.0000
vn 0.0000 0.0000 -1.0000
usemtl Material.003
s 1
f 1/1/1 2/2/1 3/3/1 4/4/1
f 5/5/2 4/6/2 3/7/2 6/8/2
f 6/9/3 3/3/3 2/10/3 7/11/3
f 7/12/4 8/13/4 5/14/4 6/9/4
f 8/15/5 1/16/5 4/4/5 5/14/5
f 7/17/6 2/18/6 1/19/6 8/20/6
